<svg xmlns="http://www.w3.org/2000/svg" viewBox="0 0 26 26"><defs><style>.a{fill:#ed1556;}.b{fill:#fff;}</style></defs><g transform="translate(-0.409 0.674)"><rect class="a" width="26" height="26" rx="4" transform="translate(0.409 -0.674)"/><g transform="translate(-6.202 -969.777)"><path class="b" d="M12.325,976.362a1.328,1.328,0,0,0-.5.1l7.39,6.583a.551.551,0,0,0,.8,0l7.376-6.583a1.328,1.328,0,0,0-.5-.1H12.325ZM11.014,977.5a1.364,1.364,0,0,0-.014.186v8.832a1.328,1.328,0,0,0,.1.511l5.1-4.9-5.189-4.63Zm17.195,0-5.175,4.623,5.092,4.9a1.331,1.331,0,0,0,.1-.5v-8.832a1.4,1.4,0,0,0-.014-.186Zm-6.169,5.513L20.9,984.035a1.943,1.943,0,0,1-2.567,0L17.2,983.021l-5.023,4.816a1.386,1.386,0,0,0,.152.007H26.9c.048,0,.1,0,.145-.007l-5-4.823Z" transform="translate(0 0)"/></g></g></svg>
