<svg xmlns="http://www.w3.org/2000/svg" viewBox="0 0 30 29.93"><defs><style>.a{fill:#ed1556;}</style></defs><path class="a" d="M25.5,25.684v-8.5a5.276,5.276,0,0,0-5.269-5.269,4.244,4.244,0,0,0-2.108.6A4.381,4.381,0,0,0,16.51,14.02V12.193h-4.5v13.49h4.5V17.744a2.222,2.222,0,0,1,.632-1.581,2.087,2.087,0,0,1,1.581-.668,2.2,2.2,0,0,1,1.616.668,2.161,2.161,0,0,1,.668,1.581v7.939ZM6.745,9.665a2.7,2.7,0,0,0,1.932-.773,2.52,2.52,0,0,0,.808-1.9,2.643,2.643,0,0,0-.808-1.932,2.631,2.631,0,0,0-1.932-.808,2.639,2.639,0,0,0-1.932.808A2.639,2.639,0,0,0,4,6.995a2.516,2.516,0,0,0,.808,1.9A2.708,2.708,0,0,0,6.745,9.665ZM8.993,25.684V12.194H4.5v13.49h4.5ZM26.979.25a2.916,2.916,0,0,1,2.143.879A2.831,2.831,0,0,1,30,3.2V27.229a2.833,2.833,0,0,1-.879,2.072,2.919,2.919,0,0,1-2.142.879H3.021A2.916,2.916,0,0,1,.878,29.3,2.831,2.831,0,0,1,0,27.229V3.2A2.833,2.833,0,0,1,.879,1.129,2.919,2.919,0,0,1,3.021.25Z" transform="translate(0 -0.25)"/></svg>
