<svg xmlns="http://www.w3.org/2000/svg" viewBox="0 0 30 30"><defs><style>.a{fill:#ed1556;fill-rule:evenodd;}</style></defs><path class="a" d="M3.75,0A3.75,3.75,0,0,0,0,3.75v22.5A3.75,3.75,0,0,0,3.75,30h22.5A3.75,3.75,0,0,0,30,26.25V3.75A3.75,3.75,0,0,0,26.25,0ZM6.563,4.688a1.875,1.875,0,0,0,0,3.75,15,15,0,0,1,15,15,1.875,1.875,0,0,0,3.75,0A18.749,18.749,0,0,0,6.563,4.688Zm0,7.5a1.875,1.875,0,0,0,0,3.75,7.5,7.5,0,0,1,7.5,7.5,1.875,1.875,0,0,0,3.75,0,11.25,11.25,0,0,0-11.25-11.25ZM7.5,25.313A2.813,2.813,0,1,0,4.688,22.5,2.813,2.813,0,0,0,7.5,25.313Z"/></svg>
