<svg xmlns="http://www.w3.org/2000/svg" viewBox="0 0 30 29.93"><defs><style>.a{fill:#ed1556;}</style></defs><path class="a" d="M23.537,11.21A7.583,7.583,0,0,0,25.5,9.1a8.563,8.563,0,0,1-2.178.632,4.369,4.369,0,0,0,1.686-2.249,8.577,8.577,0,0,1-2.6.984,3.339,3.339,0,0,0-2.178-1.159,4.5,4.5,0,0,0-2.494.352A4.072,4.072,0,0,0,15.88,9.419a3.59,3.59,0,0,0-.352,2.7,12.037,12.037,0,0,1-8.29-4.146,3.935,3.935,0,0,0-.316,3.056,3.645,3.645,0,0,0,1.509,2.284,5.185,5.185,0,0,1-1.686-.492,4.02,4.02,0,0,0,3.092,4,4.1,4.1,0,0,1-1.686.07,3.976,3.976,0,0,0,3.724,2.81,6.857,6.857,0,0,1-2.74,1.37,7.815,7.815,0,0,1-3.162.246,11.168,11.168,0,0,0,6.464,1.827,11.108,11.108,0,0,0,7.974-3.478A12.151,12.151,0,0,0,23.537,11.21ZM26.979.25a2.916,2.916,0,0,1,2.143.879A2.831,2.831,0,0,1,30,3.2V27.229a2.833,2.833,0,0,1-.879,2.072,2.919,2.919,0,0,1-2.142.879H3.021A2.916,2.916,0,0,1,.878,29.3,2.831,2.831,0,0,1,0,27.229V3.2A2.833,2.833,0,0,1,.879,1.129,2.919,2.919,0,0,1,3.021.25Z" transform="translate(0 -0.25)"/></svg>
